<?xml version="1.0" standalone="no"?>
<!DOCTYPE svg PUBLIC "-//W3C//DTD SVG 20010904//EN"
 "http://www.w3.org/TR/2001/REC-SVG-20010904/DTD/svg10.dtd">
<svg version="1.0" xmlns="http://www.w3.org/2000/svg"
 width="1024.000000pt" height="1024.000000pt" viewBox="0 0 1024.000000 1024.000000"
 preserveAspectRatio="xMidYMid meet">
<metadata>
Created by potrace 1.14, written by Peter Selinger 2001-2017
</metadata>
<g transform="translate(0.000000,1024.000000) scale(0.100000,-0.100000)"
fill="#000000" stroke="none">
<path d="M4930 7569 c-1003 -88 -1829 -786 -2075 -1753 -72 -286 -68 -192 -72
-1782 l-4 -1431 -67 -11 c-181 -30 -361 -120 -506 -253 -188 -173 -299 -403
-322 -666 l-7 -83 3242 0 3241 0 0 28 c0 59 -31 226 -55 297 -116 346 -412
608 -758 672 l-96 18 -3 1450 c-4 1442 -4 1451 -25 1570 -159 871 -739 1551
-1560 1830 -291 98 -635 141 -933 114z m465 -475 c402 -55 780 -250 960 -496
22 -30 68 -77 103 -104 98 -76 252 -241 317 -339 64 -98 102 -177 141 -291 60
-180 57 -117 61 -1361 l4 -1143 -141 0 -140 0 0 1099 c0 1193 0 1184 -56 1343
-29 81 -103 220 -114 213 -4 -3 -10 -23 -14 -46 -21 -132 -128 -312 -259 -435
-248 -234 -587 -372 -1004 -406 -378 -31 -788 66 -1088 260 -85 54 -111 75
-193 155 -160 155 -244 323 -261 517 -21 238 64 446 263 640 326 318 870 469
1421 394z"/>
</g>
</svg>
